<mxfile host="app.diagrams.net" modified="2021-12-07T16:02:17.778Z" agent="5.0 (Windows NT 10.0; Win64; x64) AppleWebKit/537.36 (KHTML, like Gecko) Chrome/94.0.4606.71 Safari/537.36" etag="vq8zA_q61zlvF_7aEMAz" version="15.9.1" type="github">
  <diagram id="Q7AEC-_fKNd9yhNPSurx" name="Page-1">
    <mxGraphModel dx="1422" dy="705" grid="1" gridSize="10" guides="1" tooltips="1" connect="1" arrows="1" fold="1" page="1" pageScale="1" pageWidth="827" pageHeight="1169" math="0" shadow="0">
      <root>
        <mxCell id="0" />
        <mxCell id="1" parent="0" />
        <mxCell id="6gUORLWhg1mMuSl4yJLm-4" style="edgeStyle=orthogonalEdgeStyle;rounded=0;orthogonalLoop=1;jettySize=auto;html=1;exitX=0.5;exitY=1;exitDx=0;exitDy=0;fontSize=14;fillColor=#fff2cc;strokeColor=#d6b656;" parent="1" source="6gUORLWhg1mMuSl4yJLm-1" target="6gUORLWhg1mMuSl4yJLm-3" edge="1">
          <mxGeometry relative="1" as="geometry" />
        </mxCell>
        <mxCell id="6gUORLWhg1mMuSl4yJLm-1" value="&lt;font style=&quot;font-size: 14px&quot;&gt;&lt;b&gt;Début&lt;/b&gt;&lt;br&gt;zMsg + strNumeroAppel&lt;/font&gt;" style="rounded=0;whiteSpace=wrap;html=1;fillColor=#fff2cc;strokeColor=#d6b656;" parent="1" vertex="1">
          <mxGeometry x="190" y="80" width="120" height="60" as="geometry" />
        </mxCell>
        <mxCell id="6gUORLWhg1mMuSl4yJLm-2" value="Process_Cpp\Suivi_Camions\sc_fonc.cpp / IdentifierCamion" style="text;html=1;align=center;verticalAlign=middle;resizable=0;points=[];autosize=1;strokeColor=none;fillColor=none;fontStyle=1;fontSize=14;" parent="1" vertex="1">
          <mxGeometry x="50" y="20" width="420" height="20" as="geometry" />
        </mxCell>
        <mxCell id="6gUORLWhg1mMuSl4yJLm-6" value="" style="edgeStyle=orthogonalEdgeStyle;rounded=0;orthogonalLoop=1;jettySize=auto;html=1;fontSize=14;fillColor=#fff2cc;strokeColor=#d6b656;" parent="1" source="6gUORLWhg1mMuSl4yJLm-3" target="6gUORLWhg1mMuSl4yJLm-5" edge="1">
          <mxGeometry relative="1" as="geometry" />
        </mxCell>
        <mxCell id="6gUORLWhg1mMuSl4yJLm-3" value="strNumeroAppel = &quot;&quot;" style="rounded=0;whiteSpace=wrap;html=1;fontSize=14;fillColor=#fff2cc;strokeColor=#d6b656;" parent="1" vertex="1">
          <mxGeometry x="180" y="170" width="140" height="80" as="geometry" />
        </mxCell>
        <mxCell id="6gUORLWhg1mMuSl4yJLm-8" value="" style="edgeStyle=orthogonalEdgeStyle;rounded=0;orthogonalLoop=1;jettySize=auto;html=1;fontSize=14;fillColor=#fff2cc;strokeColor=#d6b656;" parent="1" source="6gUORLWhg1mMuSl4yJLm-5" target="6gUORLWhg1mMuSl4yJLm-7" edge="1">
          <mxGeometry relative="1" as="geometry" />
        </mxCell>
        <mxCell id="6gUORLWhg1mMuSl4yJLm-5" value="strPriorite = APL_PRIORITE_NORMAL (&quot;N&quot;)" style="rounded=0;whiteSpace=wrap;html=1;fontSize=14;fillColor=#fff2cc;strokeColor=#d6b656;" parent="1" vertex="1">
          <mxGeometry x="160" y="280" width="190" height="100" as="geometry" />
        </mxCell>
        <mxCell id="6gUORLWhg1mMuSl4yJLm-11" style="edgeStyle=orthogonalEdgeStyle;rounded=0;orthogonalLoop=1;jettySize=auto;html=1;exitX=1;exitY=0.5;exitDx=0;exitDy=0;entryX=0.5;entryY=0;entryDx=0;entryDy=0;fontSize=10;fillColor=#fff2cc;strokeColor=#d6b656;" parent="1" source="6gUORLWhg1mMuSl4yJLm-7" target="6gUORLWhg1mMuSl4yJLm-9" edge="1">
          <mxGeometry relative="1" as="geometry" />
        </mxCell>
        <mxCell id="PxRlrsnn2dQ2GLYWGXWF-10" style="edgeStyle=orthogonalEdgeStyle;rounded=0;orthogonalLoop=1;jettySize=auto;html=1;exitX=0.5;exitY=1;exitDx=0;exitDy=0;fontSize=14;" parent="1" source="6gUORLWhg1mMuSl4yJLm-7" target="6gUORLWhg1mMuSl4yJLm-12" edge="1">
          <mxGeometry relative="1" as="geometry" />
        </mxCell>
        <mxCell id="6gUORLWhg1mMuSl4yJLm-7" value="&lt;font style=&quot;font-size: 14px&quot;&gt;zMsg.type_entree == ENT_LIV_PROD_SIDE&lt;br&gt;ou &lt;br&gt;ENT_LIV_PROD_NON_SIDE&lt;/font&gt;" style="rhombus;whiteSpace=wrap;html=1;rounded=0;fontSize=14;strokeColor=#d6b656;fillColor=#fff2cc;" parent="1" vertex="1">
          <mxGeometry x="132.5" y="440" width="245" height="260" as="geometry" />
        </mxCell>
        <mxCell id="6gUORLWhg1mMuSl4yJLm-17" value="" style="edgeStyle=orthogonalEdgeStyle;rounded=0;orthogonalLoop=1;jettySize=auto;html=1;fontSize=10;" parent="1" source="6gUORLWhg1mMuSl4yJLm-9" target="6gUORLWhg1mMuSl4yJLm-16" edge="1">
          <mxGeometry relative="1" as="geometry" />
        </mxCell>
        <mxCell id="6gUORLWhg1mMuSl4yJLm-20" style="edgeStyle=orthogonalEdgeStyle;rounded=0;orthogonalLoop=1;jettySize=auto;html=1;exitX=1;exitY=0.5;exitDx=0;exitDy=0;entryX=0.5;entryY=0;entryDx=0;entryDy=0;fontSize=10;fillColor=#fff2cc;strokeColor=#d6b656;" parent="1" source="6gUORLWhg1mMuSl4yJLm-9" target="6gUORLWhg1mMuSl4yJLm-18" edge="1">
          <mxGeometry relative="1" as="geometry" />
        </mxCell>
        <mxCell id="6gUORLWhg1mMuSl4yJLm-9" value="&lt;font style=&quot;font-size: 14px&quot;&gt;zMsg.type_entree == ENT_ENLEV_PROD_DIVERS&lt;/font&gt;" style="rhombus;whiteSpace=wrap;html=1;rounded=0;fontSize=14;strokeColor=#d6b656;fillColor=#fff2cc;" parent="1" vertex="1">
          <mxGeometry x="380" y="590" width="210" height="220" as="geometry" />
        </mxCell>
        <mxCell id="6gUORLWhg1mMuSl4yJLm-12" value="&lt;font style=&quot;font-size: 14px&quot;&gt;&lt;span&gt;appel.strLettreProduit&lt;/span&gt;&lt;br&gt;&lt;span&gt;= &lt;br&gt;APL_CLS_LIVRAISON&lt;/span&gt;&lt;br&gt;&lt;font style=&quot;font-size: 14px&quot;&gt;(&quot;&lt;b&gt;L&lt;/b&gt;&quot;)&lt;/font&gt;&lt;/font&gt;" style="whiteSpace=wrap;html=1;rounded=0;fontSize=14;fontColor=#333333;strokeColor=#666666;fillColor=#f5f5f5;" parent="1" vertex="1">
          <mxGeometry x="167.5" y="740" width="175" height="95" as="geometry" />
        </mxCell>
        <mxCell id="6gUORLWhg1mMuSl4yJLm-16" value="&lt;font style=&quot;font-size: 14px&quot;&gt;appel.strLettreProduit&lt;br&gt;= &lt;br&gt;APL_CLS_ENLEV_DIVERS&lt;/font&gt;&lt;br style=&quot;font-size: 10px&quot;&gt;&lt;font style=&quot;font-size: 16px&quot;&gt;(&quot;&lt;b&gt;D&lt;/b&gt;&quot;)&lt;/font&gt;" style="whiteSpace=wrap;html=1;rounded=0;fontSize=14;fontColor=#333333;strokeColor=#666666;fillColor=#f5f5f5;" parent="1" vertex="1">
          <mxGeometry x="383.75" y="850" width="202.5" height="100" as="geometry" />
        </mxCell>
        <mxCell id="6gUORLWhg1mMuSl4yJLm-24" value="" style="edgeStyle=orthogonalEdgeStyle;rounded=0;orthogonalLoop=1;jettySize=auto;html=1;fontSize=10;fillColor=#fff2cc;strokeColor=#d6b656;" parent="1" source="6gUORLWhg1mMuSl4yJLm-18" target="6gUORLWhg1mMuSl4yJLm-23" edge="1">
          <mxGeometry relative="1" as="geometry">
            <Array as="points">
              <mxPoint x="700" y="990" />
              <mxPoint x="230" y="990" />
            </Array>
          </mxGeometry>
        </mxCell>
        <mxCell id="6gUORLWhg1mMuSl4yJLm-18" value="&lt;font style=&quot;font-size: 14px&quot;&gt;zMsg.type_entree == ENT_ENLEV_PROD_SIDE&lt;/font&gt;" style="rhombus;whiteSpace=wrap;html=1;rounded=0;fontSize=14;strokeColor=#d6b656;fillColor=#fff2cc;" parent="1" vertex="1">
          <mxGeometry x="605" y="720" width="190" height="200" as="geometry" />
        </mxCell>
        <mxCell id="6gUORLWhg1mMuSl4yJLm-26" value="" style="edgeStyle=orthogonalEdgeStyle;rounded=0;orthogonalLoop=1;jettySize=auto;html=1;fontSize=10;" parent="1" source="6gUORLWhg1mMuSl4yJLm-23" target="6gUORLWhg1mMuSl4yJLm-25" edge="1">
          <mxGeometry relative="1" as="geometry" />
        </mxCell>
        <mxCell id="6gUORLWhg1mMuSl4yJLm-31" style="edgeStyle=orthogonalEdgeStyle;rounded=0;orthogonalLoop=1;jettySize=auto;html=1;exitX=1;exitY=0.5;exitDx=0;exitDy=0;entryX=0.5;entryY=0;entryDx=0;entryDy=0;fontSize=10;fillColor=#fff2cc;strokeColor=#d6b656;" parent="1" source="6gUORLWhg1mMuSl4yJLm-23" target="6gUORLWhg1mMuSl4yJLm-29" edge="1">
          <mxGeometry relative="1" as="geometry" />
        </mxCell>
        <mxCell id="6gUORLWhg1mMuSl4yJLm-23" value="zMsg.typ_ident == IDENT_AVEC_NUM_CMD&amp;nbsp;&lt;br&gt;&lt;b&gt;OU&lt;/b&gt;&lt;br&gt;&amp;nbsp;IDENT_SANS_NUM_CMD" style="rhombus;whiteSpace=wrap;html=1;rounded=0;fontSize=14;strokeColor=#d6b656;fillColor=#fff2cc;" parent="1" vertex="1">
          <mxGeometry x="110" y="1000" width="240" height="205" as="geometry" />
        </mxCell>
        <mxCell id="6gUORLWhg1mMuSl4yJLm-25" value="appel.strLettreProduit = APL_CLS_GENERIQUE&lt;br&gt;&lt;font style=&quot;font-size: 16px&quot;&gt;(&quot;&lt;b&gt;X&lt;/b&gt;&quot;)&lt;/font&gt;" style="whiteSpace=wrap;html=1;rounded=0;fontSize=14;fontColor=#333333;strokeColor=#666666;fillColor=#f5f5f5;" parent="1" vertex="1">
          <mxGeometry x="140" y="1242.5" width="180" height="77.5" as="geometry" />
        </mxCell>
        <mxCell id="6gUORLWhg1mMuSl4yJLm-27" value="&lt;font style=&quot;font-size: 12px&quot;&gt;Enlevement &lt;br&gt;sidérurgique&lt;/font&gt;" style="text;html=1;align=center;verticalAlign=middle;resizable=0;points=[];autosize=1;strokeColor=none;fillColor=none;fontSize=10;" parent="1" vertex="1">
          <mxGeometry x="715" y="685" width="80" height="30" as="geometry" />
        </mxCell>
        <mxCell id="6gUORLWhg1mMuSl4yJLm-28" value="&lt;font style=&quot;font-size: 12px&quot;&gt;Identification sans BE&lt;/font&gt;" style="text;html=1;align=center;verticalAlign=middle;resizable=0;points=[];autosize=1;strokeColor=none;fillColor=none;fontSize=10;" parent="1" vertex="1">
          <mxGeometry x="212.5" y="960" width="130" height="20" as="geometry" />
        </mxCell>
        <mxCell id="6gUORLWhg1mMuSl4yJLm-35" value="" style="edgeStyle=orthogonalEdgeStyle;rounded=0;orthogonalLoop=1;jettySize=auto;html=1;fontSize=10;" parent="1" source="6gUORLWhg1mMuSl4yJLm-29" target="6gUORLWhg1mMuSl4yJLm-34" edge="1">
          <mxGeometry relative="1" as="geometry" />
        </mxCell>
        <mxCell id="6gUORLWhg1mMuSl4yJLm-53" style="edgeStyle=orthogonalEdgeStyle;rounded=0;orthogonalLoop=1;jettySize=auto;html=1;exitX=1;exitY=0.5;exitDx=0;exitDy=0;entryX=0.5;entryY=0;entryDx=0;entryDy=0;fontSize=10;fontColor=#CC0000;fillColor=#fff2cc;strokeColor=#d6b656;" parent="1" source="6gUORLWhg1mMuSl4yJLm-29" target="6gUORLWhg1mMuSl4yJLm-36" edge="1">
          <mxGeometry relative="1" as="geometry" />
        </mxCell>
        <mxCell id="6gUORLWhg1mMuSl4yJLm-29" value="Lecture &lt;br&gt;ICBE dans &lt;br&gt;T_ICBE&lt;br&gt;==&lt;br&gt;False" style="rhombus;whiteSpace=wrap;html=1;rounded=0;fontSize=14;strokeColor=#d6b656;fillColor=#fff2cc;" parent="1" vertex="1">
          <mxGeometry x="414" y="1130" width="150" height="160" as="geometry" />
        </mxCell>
        <mxCell id="6gUORLWhg1mMuSl4yJLm-32" value="&lt;font style=&quot;font-size: 12px&quot;&gt;Recherche ICBE dans MER&lt;/font&gt;" style="text;html=1;align=center;verticalAlign=middle;resizable=0;points=[];autosize=1;strokeColor=none;fillColor=none;fontSize=10;" parent="1" vertex="1">
          <mxGeometry x="500" y="1100" width="160" height="20" as="geometry" />
        </mxCell>
        <mxCell id="6gUORLWhg1mMuSl4yJLm-34" value="&lt;b&gt;&lt;font color=&quot;#cc0000&quot;&gt;Sortie:&lt;/font&gt;&lt;/b&gt;&lt;br&gt;ERR_SQL" style="whiteSpace=wrap;html=1;rounded=0;fontSize=14;fontColor=#333333;strokeColor=#666666;fillColor=#f5f5f5;" parent="1" vertex="1">
          <mxGeometry x="429" y="1320" width="120" height="60" as="geometry" />
        </mxCell>
        <mxCell id="6gUORLWhg1mMuSl4yJLm-42" style="edgeStyle=orthogonalEdgeStyle;rounded=0;orthogonalLoop=1;jettySize=auto;html=1;exitX=1;exitY=0.5;exitDx=0;exitDy=0;entryX=0.5;entryY=0;entryDx=0;entryDy=0;fontSize=10;fontColor=#CC0000;" parent="1" source="6gUORLWhg1mMuSl4yJLm-36" target="6gUORLWhg1mMuSl4yJLm-41" edge="1">
          <mxGeometry relative="1" as="geometry" />
        </mxCell>
        <mxCell id="6gUORLWhg1mMuSl4yJLm-54" style="edgeStyle=orthogonalEdgeStyle;rounded=0;orthogonalLoop=1;jettySize=auto;html=1;exitX=0.5;exitY=1;exitDx=0;exitDy=0;fontSize=10;fontColor=#CC0000;fillColor=#fff2cc;strokeColor=#CCCCCC;" parent="1" source="6gUORLWhg1mMuSl4yJLm-36" target="6gUORLWhg1mMuSl4yJLm-39" edge="1">
          <mxGeometry relative="1" as="geometry" />
        </mxCell>
        <mxCell id="6gUORLWhg1mMuSl4yJLm-36" value="ICBE &lt;br&gt;n&#39;existe pas dans &lt;br&gt;MER" style="rhombus;whiteSpace=wrap;html=1;rounded=0;fontSize=14;strokeColor=#d6b656;fillColor=#fff2cc;" parent="1" vertex="1">
          <mxGeometry x="590" y="1240" width="130" height="140" as="geometry" />
        </mxCell>
        <mxCell id="6gUORLWhg1mMuSl4yJLm-39" value="&lt;font style=&quot;font-size: 14px&quot; color=&quot;#b3b3b3&quot;&gt;appel.strLettreProduit = APL_CLS_GENERIQUE&lt;br&gt;(&quot;&lt;b&gt;X&lt;/b&gt;&quot;)&lt;/font&gt;" style="whiteSpace=wrap;html=1;rounded=0;fontSize=14;strokeColor=#666666;fillColor=#f5f5f5;fontColor=#333333;" parent="1" vertex="1">
          <mxGeometry x="565" y="1440" width="180" height="77.5" as="geometry" />
        </mxCell>
        <mxCell id="PxRlrsnn2dQ2GLYWGXWF-2" value="" style="edgeStyle=orthogonalEdgeStyle;rounded=0;orthogonalLoop=1;jettySize=auto;html=1;fontSize=16;" parent="1" source="6gUORLWhg1mMuSl4yJLm-41" target="PxRlrsnn2dQ2GLYWGXWF-1" edge="1">
          <mxGeometry relative="1" as="geometry" />
        </mxCell>
        <mxCell id="6gUORLWhg1mMuSl4yJLm-41" value="appel.strLettreProduit = icbe.strLettreProduit" style="whiteSpace=wrap;html=1;rounded=0;fontSize=14;fontColor=#333333;strokeColor=#666666;fillColor=#f5f5f5;" parent="1" vertex="1">
          <mxGeometry x="760" y="1400" width="180" height="77.5" as="geometry" />
        </mxCell>
        <mxCell id="PxRlrsnn2dQ2GLYWGXWF-4" style="edgeStyle=orthogonalEdgeStyle;rounded=0;orthogonalLoop=1;jettySize=auto;html=1;exitX=0.5;exitY=1;exitDx=0;exitDy=0;fontSize=16;" parent="1" source="PxRlrsnn2dQ2GLYWGXWF-1" target="PxRlrsnn2dQ2GLYWGXWF-3" edge="1">
          <mxGeometry relative="1" as="geometry" />
        </mxCell>
        <mxCell id="PxRlrsnn2dQ2GLYWGXWF-6" style="edgeStyle=orthogonalEdgeStyle;rounded=0;orthogonalLoop=1;jettySize=auto;html=1;exitX=1;exitY=0.5;exitDx=0;exitDy=0;fontSize=16;" parent="1" source="PxRlrsnn2dQ2GLYWGXWF-1" target="PxRlrsnn2dQ2GLYWGXWF-5" edge="1">
          <mxGeometry relative="1" as="geometry" />
        </mxCell>
        <mxCell id="PxRlrsnn2dQ2GLYWGXWF-1" value="&lt;span&gt;icbe.strLettreProduit &lt;br&gt;== &quot;&quot; OU &quot; &quot;&lt;/span&gt;" style="rhombus;whiteSpace=wrap;html=1;rounded=0;fontSize=14;fontColor=#333333;strokeColor=#666666;fillColor=#f5f5f5;" parent="1" vertex="1">
          <mxGeometry x="765" y="1510" width="170" height="148.75" as="geometry" />
        </mxCell>
        <mxCell id="PxRlrsnn2dQ2GLYWGXWF-3" value="&lt;font style=&quot;font-size: 14px&quot;&gt;appel.strLettreProduit = APL_CLS_GENERIQUE&lt;br&gt;(&quot;&lt;b&gt;X&lt;/b&gt;&quot;)&lt;/font&gt;" style="whiteSpace=wrap;html=1;rounded=0;fontSize=14;strokeColor=#666666;fillColor=#f5f5f5;fontColor=#333333;" parent="1" vertex="1">
          <mxGeometry x="760" y="1710" width="180" height="77.5" as="geometry" />
        </mxCell>
        <mxCell id="PxRlrsnn2dQ2GLYWGXWF-8" style="edgeStyle=orthogonalEdgeStyle;rounded=0;orthogonalLoop=1;jettySize=auto;html=1;exitX=0.5;exitY=1;exitDx=0;exitDy=0;entryX=0.5;entryY=0;entryDx=0;entryDy=0;fontSize=16;" parent="1" source="PxRlrsnn2dQ2GLYWGXWF-5" target="PxRlrsnn2dQ2GLYWGXWF-7" edge="1">
          <mxGeometry relative="1" as="geometry" />
        </mxCell>
        <mxCell id="PxRlrsnn2dQ2GLYWGXWF-5" value="appel.strPortePrevue =&amp;nbsp; icbe.strPortePrevue" style="whiteSpace=wrap;html=1;rounded=0;fontSize=14;strokeColor=#666666;fillColor=#f5f5f5;fontColor=#333333;" parent="1" vertex="1">
          <mxGeometry x="970" y="1670" width="140" height="60" as="geometry" />
        </mxCell>
        <mxCell id="PxRlrsnn2dQ2GLYWGXWF-7" value="strPriorite =&amp;nbsp; icbe.strPriorite" style="whiteSpace=wrap;html=1;rounded=0;fontSize=14;strokeColor=#666666;fillColor=#f5f5f5;fontColor=#333333;" parent="1" vertex="1">
          <mxGeometry x="970" y="1750" width="140" height="60" as="geometry" />
        </mxCell>
        <mxCell id="PxRlrsnn2dQ2GLYWGXWF-9" value="&lt;font style=&quot;font-size: 18px&quot;&gt;Cas : table T_ICBE non-alimentée&lt;br&gt;&lt;b&gt;Proposition de modification&lt;/b&gt;&lt;br&gt;&lt;/font&gt;" style="text;html=1;align=center;verticalAlign=middle;resizable=0;points=[];autosize=1;strokeColor=none;fillColor=none;fontSize=16;" parent="1" vertex="1">
          <mxGeometry x="460" y="130" width="290" height="40" as="geometry" />
        </mxCell>
        <mxCell id="dDj5kOd6rc8OutOz8S_O-1" style="edgeStyle=orthogonalEdgeStyle;rounded=0;orthogonalLoop=1;jettySize=auto;html=1;exitX=0.5;exitY=1;exitDx=0;exitDy=0;entryX=0.5;entryY=0;entryDx=0;entryDy=0;fontColor=#000000;strokeColor=#999999;" parent="1" source="6gUORLWhg1mMuSl4yJLm-36" target="dDj5kOd6rc8OutOz8S_O-3" edge="1">
          <mxGeometry relative="1" as="geometry">
            <mxPoint x="475" y="1195" as="sourcePoint" />
          </mxGeometry>
        </mxCell>
        <mxCell id="dDj5kOd6rc8OutOz8S_O-2" value="" style="edgeStyle=orthogonalEdgeStyle;rounded=0;orthogonalLoop=1;jettySize=auto;html=1;fontColor=#000000;strokeColor=#999999;" parent="1" source="dDj5kOd6rc8OutOz8S_O-3" target="dDj5kOd6rc8OutOz8S_O-6" edge="1">
          <mxGeometry relative="1" as="geometry" />
        </mxCell>
        <mxCell id="dDj5kOd6rc8OutOz8S_O-3" value="&lt;font style=&quot;font-size: 14px&quot;&gt;Appel OG pour&lt;br&gt;récupération des données de l&#39;ICBE&lt;/font&gt;" style="rounded=0;whiteSpace=wrap;html=1;strokeColor=#36393d;fillColor=#cdeb8b;" parent="1" vertex="1">
          <mxGeometry x="80" y="1370" width="120" height="60" as="geometry" />
        </mxCell>
        <mxCell id="dDj5kOd6rc8OutOz8S_O-4" value="" style="edgeStyle=orthogonalEdgeStyle;rounded=0;orthogonalLoop=1;jettySize=auto;html=1;fontColor=#000000;strokeColor=#999999;" parent="1" source="dDj5kOd6rc8OutOz8S_O-6" target="dDj5kOd6rc8OutOz8S_O-8" edge="1">
          <mxGeometry relative="1" as="geometry" />
        </mxCell>
        <mxCell id="dDj5kOd6rc8OutOz8S_O-5" style="edgeStyle=orthogonalEdgeStyle;rounded=0;orthogonalLoop=1;jettySize=auto;html=1;exitX=1;exitY=0.5;exitDx=0;exitDy=0;fontSize=12;fontColor=#000000;strokeColor=#999999;" parent="1" source="dDj5kOd6rc8OutOz8S_O-6" target="dDj5kOd6rc8OutOz8S_O-10" edge="1">
          <mxGeometry relative="1" as="geometry" />
        </mxCell>
        <mxCell id="dDj5kOd6rc8OutOz8S_O-6" value="&lt;font style=&quot;font-size: 14px&quot;&gt;Appel&amp;nbsp;&lt;br&gt;en erreur&lt;/font&gt;" style="rhombus;whiteSpace=wrap;html=1;rounded=0;strokeColor=#36393d;fillColor=#cdeb8b;" parent="1" vertex="1">
          <mxGeometry x="95" y="1470" width="90" height="90" as="geometry" />
        </mxCell>
        <mxCell id="dDj5kOd6rc8OutOz8S_O-7" style="edgeStyle=orthogonalEdgeStyle;rounded=0;orthogonalLoop=1;jettySize=auto;html=1;exitX=0.5;exitY=1;exitDx=0;exitDy=0;fontColor=#000000;strokeColor=#999999;" parent="1" source="dDj5kOd6rc8OutOz8S_O-8" target="dDj5kOd6rc8OutOz8S_O-9" edge="1">
          <mxGeometry relative="1" as="geometry" />
        </mxCell>
        <mxCell id="dDj5kOd6rc8OutOz8S_O-8" value="&lt;font style=&quot;font-size: 14px&quot;&gt;log de l&#39;erreur&lt;/font&gt;" style="whiteSpace=wrap;html=1;rounded=0;strokeColor=#36393d;fillColor=#cdeb8b;" parent="1" vertex="1">
          <mxGeometry x="80" y="1590" width="120" height="60" as="geometry" />
        </mxCell>
        <mxCell id="dDj5kOd6rc8OutOz8S_O-9" value="&lt;font style=&quot;font-size: 14px&quot;&gt;&lt;font style=&quot;font-size: 14px&quot;&gt;appel.strLettreProduit = APL_CLS_GENERIQUE&lt;/font&gt;&lt;br&gt;&lt;font style=&quot;font-size: 14px&quot;&gt;(&quot;&lt;b&gt;X&lt;/b&gt;&quot;)&lt;/font&gt;&lt;/font&gt;" style="whiteSpace=wrap;html=1;rounded=0;fontSize=14;strokeColor=#36393d;fillColor=#cdeb8b;" parent="1" vertex="1">
          <mxGeometry x="50" y="1700" width="180" height="77.5" as="geometry" />
        </mxCell>
        <mxCell id="dDj5kOd6rc8OutOz8S_O-10" value="&lt;font style=&quot;font-size: 14px&quot;&gt;appel.strLettreProduit &lt;br&gt;= &lt;br&gt;lettreProduit des données renvoyées&lt;/font&gt;" style="whiteSpace=wrap;html=1;rounded=0;strokeColor=#36393d;fillColor=#cdeb8b;" parent="1" vertex="1">
          <mxGeometry x="260" y="1590" width="150" height="70" as="geometry" />
        </mxCell>
        <mxCell id="AsvImll8CEQnAyk7d9xp-1" value="&lt;font color=&quot;#000000&quot;&gt;Portion de code supprimée&lt;/font&gt;" style="text;html=1;align=center;verticalAlign=middle;resizable=0;points=[];autosize=1;strokeColor=none;fillColor=none;fontColor=#B3B3B3;" vertex="1" parent="1">
          <mxGeometry x="575" y="1416" width="160" height="20" as="geometry" />
        </mxCell>
      </root>
    </mxGraphModel>
  </diagram>
</mxfile>
